{
	"asset":{
		"generator":"Khronos glTF Blender I/O v4.4.56",
		"version":"2.0"
	},
	"scene":0,
	"scenes":[
		{
			"name":"Scene",
			"nodes":[
				7
			]
		}
	],
	"nodes":[
		{
			"mesh":0,
			"name":"Object_7"
		},
		{
			"children":[
				0
			],
			"name":"Object_6",
			"rotation":[
				-0.70710688829422,
				0,
				0,
				0.7071066498756409
			]
		},
		{
			"name":"_rootJoint",
			"rotation":[
				-8.55714432645982e-09,
				1.7114274442064925e-08,
				-2.928983815672615e-16,
				1
			]
		},
		{
			"children":[
				1,
				2
			],
			"name":"Object_4"
		},
		{
			"children":[
				3
			],
			"name":"root",
			"rotation":[
				-0.70710688829422,
				0,
				0,
				0.7071066498756409
			]
		},
		{
			"children":[
				4
			],
			"name":"RootNode"
		},
		{
			"children":[
				5
			],
			"name":"f5cbfeeb37544aa48dbba5bfd3e5bfdb.fbx",
			"rotation":[
				0.70710688829422,
				0,
				0,
				0.7071066498756409
			]
		},
		{
			"children":[
				6
			],
			"name":"Sketchfab_model",
			"rotation":[
				-0.70710688829422,
				0,
				0,
				0.7071066498756409
			],
			"scale":[
				0.009258706122636795,
				0.00925870705395937,
				0.00925870705395937
			]
		}
	],
	"materials":[
		{
			"emissiveFactor":[
				1,
				1,
				1
			],
			"emissiveTexture":{
				"index":0
			},
			"name":"default",
			"normalTexture":{
				"index":1
			},
			"occlusionTexture":{
				"index":2
			},
			"pbrMetallicRoughness":{
				"baseColorTexture":{
					"index":3
				},
				"metallicRoughnessTexture":{
					"index":2
				}
			}
		}
	],
	"meshes":[
		{
			"name":"Object_0",
			"primitives":[
				{
					"attributes":{
						"POSITION":0,
						"NORMAL":1,
						"TEXCOORD_0":2,
						"TANGENT":3
					},
					"indices":4,
					"material":0
				}
			]
		}
	],
	"textures":[
		{
			"sampler":0,
			"source":0
		},
		{
			"sampler":0,
			"source":1
		},
		{
			"sampler":0,
			"source":2
		},
		{
			"sampler":0,
			"source":3
		}
	],
	"images":[
		{
			"mimeType":"image/png",
			"name":"Image_2",
			"uri":"../../assets/player/textures/Image_2.png"
		},
		{
			"mimeType":"image/png",
			"name":"Image_3",
			"uri":"../../assets/player/textures/Image_3.png"
		},
		{
			"mimeType":"image/png",
			"name":"Image_1",
			"uri":"../../assets/player/textures/Image_1.png"
		},
		{
			"mimeType":"image/png",
			"name":"Image_0",
			"uri":"../../assets/player/textures/Image_0.png"
		}
	],
	"skins":[
		{
			"inverseBindMatrices":5,
			"joints":[
				2
			],
			"name":"Object_4"
		}
	],
	"accessors":[
		{
			"bufferView":0,
			"componentType":5126,
			"count":12611,
			"max":[
				69.3660659790039,
				-0.49570298194885254,
				17.90737533569336
			],
			"min":[
				-69.36605834960938,
				-182.11666870117188,
				-12.723443031311035
			],
			"type":"VEC3"
		},
		{
			"bufferView":1,
			"componentType":5126,
			"count":12611,
			"type":"VEC3"
		},
		{
			"bufferView":2,
			"componentType":5126,
			"count":12611,
			"type":"VEC2"
		},
		{
			"bufferView":3,
			"componentType":5126,
			"count":12611,
			"type":"VEC4"
		},
		{
			"bufferView":4,
			"componentType":5123,
			"count":27030,
			"type":"SCALAR"
		},
		{
			"bufferView":5,
			"componentType":5126,
			"count":1,
			"type":"MAT4"
		}
	],
	"bufferViews":[
		{
			"buffer":0,
			"byteLength":151332,
			"byteOffset":0,
			"target":34962
		},
		{
			"buffer":0,
			"byteLength":151332,
			"byteOffset":151332,
			"target":34962
		},
		{
			"buffer":0,
			"byteLength":100888,
			"byteOffset":302664,
			"target":34962
		},
		{
			"buffer":0,
			"byteLength":201776,
			"byteOffset":403552,
			"target":34962
		},
		{
			"buffer":0,
			"byteLength":54060,
			"byteOffset":605328,
			"target":34963
		},
		{
			"buffer":0,
			"byteLength":64,
			"byteOffset":659388
		}
	],
	"samplers":[
		{
			"magFilter":9729,
			"minFilter":9987
		}
	],
	"buffers":[
		{
			"byteLength":659452,
			"uri":"character-faa141c5f57625af1898bae2c4740e82.bin"
		}
	]
}
