{
	"asset":{
		"generator":"Khronos glTF Blender I/O v4.4.56",
		"version":"2.0"
	},
	"scene":0,
	"scenes":[
		{
			"name":"Scene",
			"nodes":[
				14
			]
		}
	],
	"nodes":[
		{
			"name":"Foot.R",
			"rotation":[
				-5.024295781800919e-15,
				-5.338507236274381e-08,
				0.7071067690849304,
				0.7071067690849304
			],
			"translation":[
				0,
				2.0950753688812256,
				0
			]
		},
		{
			"children":[
				0
			],
			"name":"LowerLeg.R",
			"rotation":[
				0,
				1.5893256488652696e-08,
				0,
				1
			],
			"translation":[
				0,
				1.7836668491363525,
				0
			]
		},
		{
			"children":[
				1
			],
			"name":"UpperLeg.R",
			"rotation":[
				0.7071067690849304,
				0,
				-0.7071067690849304,
				0
			],
			"scale":[
				1,
				0.9999999403953552,
				1
			],
			"translation":[
				-0.48347893357276917,
				-0.2783665657043457,
				0
			]
		},
		{
			"name":"Foot.L",
			"rotation":[
				-5.024295781800919e-15,
				5.338507236274381e-08,
				-0.7071067690849304,
				0.7071067690849304
			],
			"translation":[
				0,
				2.0950753688812256,
				0
			]
		},
		{
			"children":[
				3
			],
			"name":"LowerLeg.L",
			"rotation":[
				0,
				-1.5893256488652696e-08,
				0,
				1
			],
			"translation":[
				0,
				1.7836668491363525,
				0
			]
		},
		{
			"children":[
				4
			],
			"name":"UpperLeg.L",
			"rotation":[
				0.7071067690849304,
				0,
				0.7071067690849304,
				0
			],
			"scale":[
				1,
				0.9999999403953552,
				1
			],
			"translation":[
				0.48347893357276917,
				-0.2783665657043457,
				0
			]
		},
		{
			"children":[
				2,
				5
			],
			"name":"Hips",
			"translation":[
				0,
				4.409913539886475,
				0
			]
		},
		{
			"mesh":0,
			"name":"Cube",
			"skin":0
		},
		{
			"mesh":1,
			"name":"Foot.L",
			"skin":0
		},
		{
			"mesh":2,
			"name":"Foot.R",
			"skin":0
		},
		{
			"mesh":3,
			"name":"LowerLeg.L",
			"skin":0
		},
		{
			"mesh":4,
			"name":"LowerLeg.R",
			"skin":0
		},
		{
			"mesh":5,
			"name":"UpperLeg.L",
			"skin":0
		},
		{
			"mesh":6,
			"name":"UpperLeg.R",
			"skin":0
		},
		{
			"children":[
				7,
				8,
				9,
				10,
				11,
				12,
				13,
				6
			],
			"name":"Armature"
		}
	],
	"meshes":[
		{
			"name":"Cube.001",
			"primitives":[
				{
					"attributes":{
						"POSITION":0,
						"NORMAL":1,
						"TEXCOORD_0":2,
						"TANGENT":3,
						"JOINTS_0":4,
						"WEIGHTS_0":5
					},
					"indices":6
				}
			]
		},
		{
			"name":"Cube.009",
			"primitives":[
				{
					"attributes":{
						"POSITION":8,
						"NORMAL":9,
						"TEXCOORD_0":10,
						"TANGENT":11,
						"JOINTS_0":12,
						"WEIGHTS_0":13
					},
					"indices":14
				}
			]
		},
		{
			"name":"Cube.006",
			"primitives":[
				{
					"attributes":{
						"POSITION":15,
						"NORMAL":16,
						"TEXCOORD_0":17,
						"TANGENT":18,
						"JOINTS_0":19,
						"WEIGHTS_0":20
					},
					"indices":14
				}
			]
		},
		{
			"name":"Cube.008",
			"primitives":[
				{
					"attributes":{
						"POSITION":21,
						"NORMAL":22,
						"TEXCOORD_0":23,
						"TANGENT":24,
						"JOINTS_0":25,
						"WEIGHTS_0":26
					},
					"indices":6
				}
			]
		},
		{
			"name":"Cube.005",
			"primitives":[
				{
					"attributes":{
						"POSITION":27,
						"NORMAL":28,
						"TEXCOORD_0":29,
						"TANGENT":30,
						"JOINTS_0":31,
						"WEIGHTS_0":32
					},
					"indices":6
				}
			]
		},
		{
			"name":"Cube.007",
			"primitives":[
				{
					"attributes":{
						"POSITION":33,
						"NORMAL":34,
						"TEXCOORD_0":35,
						"TANGENT":36,
						"JOINTS_0":37,
						"WEIGHTS_0":38
					},
					"indices":6
				}
			]
		},
		{
			"name":"Cube.002",
			"primitives":[
				{
					"attributes":{
						"POSITION":39,
						"NORMAL":40,
						"TEXCOORD_0":41,
						"TANGENT":42,
						"JOINTS_0":43,
						"WEIGHTS_0":44
					},
					"indices":6
				}
			]
		}
	],
	"skins":[
		{
			"inverseBindMatrices":7,
			"joints":[
				6,
				2,
				1,
				0,
				5,
				4,
				3
			],
			"name":"Armature"
		}
	],
	"accessors":[
		{
			"bufferView":0,
			"componentType":5126,
			"count":24,
			"max":[
				1,
				6,
				0.6016271710395813
			],
			"min":[
				-1,
				4,
				-0.6016271710395813
			],
			"type":"VEC3"
		},
		{
			"bufferView":1,
			"componentType":5126,
			"count":24,
			"type":"VEC3"
		},
		{
			"bufferView":2,
			"componentType":5126,
			"count":24,
			"type":"VEC2"
		},
		{
			"bufferView":3,
			"componentType":5126,
			"count":24,
			"type":"VEC4"
		},
		{
			"bufferView":4,
			"componentType":5121,
			"count":24,
			"type":"VEC4"
		},
		{
			"bufferView":5,
			"componentType":5126,
			"count":24,
			"type":"VEC4"
		},
		{
			"bufferView":6,
			"componentType":5123,
			"count":36,
			"type":"SCALAR"
		},
		{
			"bufferView":7,
			"componentType":5126,
			"count":7,
			"type":"MAT4"
		},
		{
			"bufferView":8,
			"componentType":5126,
			"count":24,
			"max":[
				0.693189799785614,
				0.4425853192806244,
				0.7686371803283691
			],
			"min":[
				0.2931898236274719,
				0.042585186660289764,
				-0.17150433361530304
			],
			"type":"VEC3"
		},
		{
			"bufferView":9,
			"componentType":5126,
			"count":24,
			"type":"VEC3"
		},
		{
			"bufferView":10,
			"componentType":5126,
			"count":24,
			"type":"VEC2"
		},
		{
			"bufferView":11,
			"componentType":5126,
			"count":24,
			"type":"VEC4"
		},
		{
			"bufferView":12,
			"componentType":5121,
			"count":24,
			"type":"VEC4"
		},
		{
			"bufferView":13,
			"componentType":5126,
			"count":24,
			"type":"VEC4"
		},
		{
			"bufferView":14,
			"componentType":5123,
			"count":36,
			"type":"SCALAR"
		},
		{
			"bufferView":15,
			"componentType":5126,
			"count":24,
			"max":[
				-0.30383116006851196,
				0.4425853192806244,
				0.7686371803283691
			],
			"min":[
				-0.703831136226654,
				0.042585186660289764,
				-0.17150433361530304
			],
			"type":"VEC3"
		},
		{
			"bufferView":16,
			"componentType":5126,
			"count":24,
			"type":"VEC3"
		},
		{
			"bufferView":17,
			"componentType":5126,
			"count":24,
			"type":"VEC2"
		},
		{
			"bufferView":18,
			"componentType":5126,
			"count":24,
			"type":"VEC4"
		},
		{
			"bufferView":19,
			"componentType":5121,
			"count":24,
			"type":"VEC4"
		},
		{
			"bufferView":20,
			"componentType":5126,
			"count":24,
			"type":"VEC4"
		},
		{
			"bufferView":21,
			"componentType":5126,
			"count":24,
			"max":[
				0.693189799785614,
				2.3468384742736816,
				0.19999998807907104
			],
			"min":[
				0.2931898236274719,
				0.489544153213501,
				-0.19999998807907104
			],
			"type":"VEC3"
		},
		{
			"bufferView":22,
			"componentType":5126,
			"count":24,
			"type":"VEC3"
		},
		{
			"bufferView":23,
			"componentType":5126,
			"count":24,
			"type":"VEC2"
		},
		{
			"bufferView":24,
			"componentType":5126,
			"count":24,
			"type":"VEC4"
		},
		{
			"bufferView":25,
			"componentType":5121,
			"count":24,
			"type":"VEC4"
		},
		{
			"bufferView":26,
			"componentType":5126,
			"count":24,
			"type":"VEC4"
		},
		{
			"bufferView":27,
			"componentType":5126,
			"count":24,
			"max":[
				-0.30383116006851196,
				2.3468384742736816,
				0.19999998807907104
			],
			"min":[
				-0.703831136226654,
				0.489544153213501,
				-0.19999998807907104
			],
			"type":"VEC3"
		},
		{
			"bufferView":28,
			"componentType":5126,
			"count":24,
			"type":"VEC3"
		},
		{
			"bufferView":29,
			"componentType":5126,
			"count":24,
			"type":"VEC2"
		},
		{
			"bufferView":30,
			"componentType":5126,
			"count":24,
			"type":"VEC4"
		},
		{
			"bufferView":31,
			"componentType":5121,
			"count":24,
			"type":"VEC4"
		},
		{
			"bufferView":32,
			"componentType":5126,
			"count":24,
			"type":"VEC4"
		},
		{
			"bufferView":33,
			"componentType":5126,
			"count":24,
			"max":[
				0.693189799785614,
				3.9909300804138184,
				0.19999998807907104
			],
			"min":[
				0.2931898236274719,
				2.39093017578125,
				-0.19999998807907104
			],
			"type":"VEC3"
		},
		{
			"bufferView":34,
			"componentType":5126,
			"count":24,
			"type":"VEC3"
		},
		{
			"bufferView":35,
			"componentType":5126,
			"count":24,
			"type":"VEC2"
		},
		{
			"bufferView":36,
			"componentType":5126,
			"count":24,
			"type":"VEC4"
		},
		{
			"bufferView":37,
			"componentType":5121,
			"count":24,
			"type":"VEC4"
		},
		{
			"bufferView":38,
			"componentType":5126,
			"count":24,
			"type":"VEC4"
		},
		{
			"bufferView":39,
			"componentType":5126,
			"count":24,
			"max":[
				-0.30383116006851196,
				3.9909300804138184,
				0.19999998807907104
			],
			"min":[
				-0.703831136226654,
				2.39093017578125,
				-0.19999998807907104
			],
			"type":"VEC3"
		},
		{
			"bufferView":40,
			"componentType":5126,
			"count":24,
			"type":"VEC3"
		},
		{
			"bufferView":41,
			"componentType":5126,
			"count":24,
			"type":"VEC2"
		},
		{
			"bufferView":42,
			"componentType":5126,
			"count":24,
			"type":"VEC4"
		},
		{
			"bufferView":43,
			"componentType":5121,
			"count":24,
			"type":"VEC4"
		},
		{
			"bufferView":44,
			"componentType":5126,
			"count":24,
			"type":"VEC4"
		}
	],
	"bufferViews":[
		{
			"buffer":0,
			"byteLength":288,
			"byteOffset":0,
			"target":34962
		},
		{
			"buffer":0,
			"byteLength":288,
			"byteOffset":288,
			"target":34962
		},
		{
			"buffer":0,
			"byteLength":192,
			"byteOffset":576,
			"target":34962
		},
		{
			"buffer":0,
			"byteLength":384,
			"byteOffset":768,
			"target":34962
		},
		{
			"buffer":0,
			"byteLength":96,
			"byteOffset":1152,
			"target":34962
		},
		{
			"buffer":0,
			"byteLength":384,
			"byteOffset":1248,
			"target":34962
		},
		{
			"buffer":0,
			"byteLength":72,
			"byteOffset":1632,
			"target":34963
		},
		{
			"buffer":0,
			"byteLength":448,
			"byteOffset":1704
		},
		{
			"buffer":0,
			"byteLength":288,
			"byteOffset":2152,
			"target":34962
		},
		{
			"buffer":0,
			"byteLength":288,
			"byteOffset":2440,
			"target":34962
		},
		{
			"buffer":0,
			"byteLength":192,
			"byteOffset":2728,
			"target":34962
		},
		{
			"buffer":0,
			"byteLength":384,
			"byteOffset":2920,
			"target":34962
		},
		{
			"buffer":0,
			"byteLength":96,
			"byteOffset":3304,
			"target":34962
		},
		{
			"buffer":0,
			"byteLength":384,
			"byteOffset":3400,
			"target":34962
		},
		{
			"buffer":0,
			"byteLength":72,
			"byteOffset":3784,
			"target":34963
		},
		{
			"buffer":0,
			"byteLength":288,
			"byteOffset":3856,
			"target":34962
		},
		{
			"buffer":0,
			"byteLength":288,
			"byteOffset":4144,
			"target":34962
		},
		{
			"buffer":0,
			"byteLength":192,
			"byteOffset":4432,
			"target":34962
		},
		{
			"buffer":0,
			"byteLength":384,
			"byteOffset":4624,
			"target":34962
		},
		{
			"buffer":0,
			"byteLength":96,
			"byteOffset":5008,
			"target":34962
		},
		{
			"buffer":0,
			"byteLength":384,
			"byteOffset":5104,
			"target":34962
		},
		{
			"buffer":0,
			"byteLength":288,
			"byteOffset":5488,
			"target":34962
		},
		{
			"buffer":0,
			"byteLength":288,
			"byteOffset":5776,
			"target":34962
		},
		{
			"buffer":0,
			"byteLength":192,
			"byteOffset":6064,
			"target":34962
		},
		{
			"buffer":0,
			"byteLength":384,
			"byteOffset":6256,
			"target":34962
		},
		{
			"buffer":0,
			"byteLength":96,
			"byteOffset":6640,
			"target":34962
		},
		{
			"buffer":0,
			"byteLength":384,
			"byteOffset":6736,
			"target":34962
		},
		{
			"buffer":0,
			"byteLength":288,
			"byteOffset":7120,
			"target":34962
		},
		{
			"buffer":0,
			"byteLength":288,
			"byteOffset":7408,
			"target":34962
		},
		{
			"buffer":0,
			"byteLength":192,
			"byteOffset":7696,
			"target":34962
		},
		{
			"buffer":0,
			"byteLength":384,
			"byteOffset":7888,
			"target":34962
		},
		{
			"buffer":0,
			"byteLength":96,
			"byteOffset":8272,
			"target":34962
		},
		{
			"buffer":0,
			"byteLength":384,
			"byteOffset":8368,
			"target":34962
		},
		{
			"buffer":0,
			"byteLength":288,
			"byteOffset":8752,
			"target":34962
		},
		{
			"buffer":0,
			"byteLength":288,
			"byteOffset":9040,
			"target":34962
		},
		{
			"buffer":0,
			"byteLength":192,
			"byteOffset":9328,
			"target":34962
		},
		{
			"buffer":0,
			"byteLength":384,
			"byteOffset":9520,
			"target":34962
		},
		{
			"buffer":0,
			"byteLength":96,
			"byteOffset":9904,
			"target":34962
		},
		{
			"buffer":0,
			"byteLength":384,
			"byteOffset":10000,
			"target":34962
		},
		{
			"buffer":0,
			"byteLength":288,
			"byteOffset":10384,
			"target":34962
		},
		{
			"buffer":0,
			"byteLength":288,
			"byteOffset":10672,
			"target":34962
		},
		{
			"buffer":0,
			"byteLength":192,
			"byteOffset":10960,
			"target":34962
		},
		{
			"buffer":0,
			"byteLength":384,
			"byteOffset":11152,
			"target":34962
		},
		{
			"buffer":0,
			"byteLength":96,
			"byteOffset":11536,
			"target":34962
		},
		{
			"buffer":0,
			"byteLength":384,
			"byteOffset":11632,
			"target":34962
		}
	],
	"buffers":[
		{
			"byteLength":12016,
			"uri":"model-17015113b687403f550e74b63cd2349d.bin"
		}
	]
}
